<svg xmlns="http://www.w3.org/2000/svg" viewBox="0 0 111.48 46.9"><defs><style>.cls-1{fill:#ffcd25;}.cls-1,.cls-3,.cls-4{fill-rule:evenodd;}.cls-2{fill:none;stroke:#231f20;stroke-miterlimit:2.61;stroke-width:1.17px;}.cls-3{fill:#1d1d1b;}.cls-4{fill:#c64a34;}</style></defs><g id="Layer_2" data-name="Layer 2"><g id="Layer_1-2" data-name="Layer 1"><path class="cls-1" d="M46.24.59V46.31H6.38A5.82,5.82,0,0,1,.59,40.46v-34A5.82,5.82,0,0,1,6.38.59Z"/><path class="cls-2" d="M46.24.59V46.31M.59,6.44A5.82,5.82,0,0,1,6.38.59H105.1a5.83,5.83,0,0,1,5.8,5.85v34a5.83,5.83,0,0,1-5.8,5.85H6.38A5.82,5.82,0,0,1,.59,40.46v-34Z"/><path class="cls-3" d="M56.08,26.31H67L63.13,14.94l-1.57-4.63-.06-.17-1.6,4.78L56.08,26.31Zm5.42-10,2.78,8.12H58.84l2.66-8.12Z"/><polygon class="cls-3" points="55.92 26.79 54.48 31.15 56.59 31.15 57.4 28.65 65.66 28.65 66.53 31.15 68.68 31.15 67.15 26.79 55.92 26.79 55.92 26.79 55.92 26.79 55.92 26.79"/><polygon class="cls-3" points="70.38 26.13 70.63 27.2 70.69 27.34 70.93 27.89 71.15 28.3 71.29 28.54 71.72 29.14 72.23 29.69 72.9 30.26 73.65 30.71 74.47 31.04 75.31 31.23 76.16 31.31 76.99 31.29 77.51 31.18 77.81 31.12 78.6 30.85 79.46 30.42 80.09 30.08 80.09 31.58 79.98 32 79.77 32.37 79.48 32.69 79.11 32.9 78.5 33.05 77.87 33.1 77.51 33.09 77.25 33.09 76.63 32.99 76.24 32.86 75.91 32.64 75.64 32.34 75.46 31.97 75.39 31.58 73.31 31.6 73.36 32.26 73.55 32.89 73.89 33.46 74.33 33.93 75.11 34.49 76.02 34.84 77.1 35.02 77.51 35.02 78.19 35.01 79.25 34.81 80.27 34.43 80.89 34.03 81.42 33.54 81.86 32.95 82.06 32.48 82.16 31.96 82.19 31.45 82.19 26.4 81.94 26.99 81.62 27.54 81.26 28.06 80.84 28.54 80.38 28.98 79.59 29.52 78.67 29.88 77.7 30.07 77.51 30.07 76.69 30.07 75.72 29.88 74.94 29.58 74.22 29.16 73.57 28.6 73.04 27.95 72.63 27.23 72.35 26.59 72.12 25.8 71.97 25.03 71.87 24.19 71.81 23.29 71.83 22.4 71.93 21.57 72.07 20.74 72.4 19.76 72.83 18.94 73.37 18.25 73.81 17.81 74.25 17.46 75.06 17.02 75.93 16.73 76.84 16.59 77.51 16.61 77.76 16.62 78.7 16.83 79.59 17.24 80.04 17.52 80.53 17.94 80.93 18.35 81.3 18.8 81.67 19.41 82.14 20.43 82.14 15.67 82.13 15.67 80.15 15.67 80.16 16.94 79.49 16.39 78.75 15.93 77.94 15.6 77.51 15.5 77.21 15.43 76.48 15.36 75.73 15.37 75 15.47 74.28 15.67 73.59 15.94 72.94 16.32 72.34 16.76 71.88 17.25 71.47 17.78 71.15 18.29 71.11 18.35 70.81 18.95 70.69 19.31 70.59 19.59 70.36 20.67 70.19 21.75 70.12 22.85 70.12 23.94 70.21 25.04 70.38 26.13 70.38 26.13 70.38 26.13 70.38 26.13"/><path class="cls-3" d="M81.73,20.73,81.45,20l-.4-.71-.51-.63L80,18.08l-.66-.46-1-.38-.8-.11L77,17.07l-1.08.17-1,.4-.59.4-.42.37-.36.43-.39.64-.3.59-.24.71-.2,1-.1,1.41.1,1.3.1.81.34,1.2.33.69.08.13.34.5.38.44.38.36.56.44.82.38.87.21.89,0h0l.84-.14.84-.32.52-.3.45-.38.46-.43.37-.44.32-.51.27-.54.2-.57.2-.86.13-.89,0-.89,0-.89L82,21.6l-.22-.87Zm-1.61,3v.46L80,25l-.18.72-.38.62-.52.52-.43.27-.45.17-.47.08h-.46l-.41-.11-.35-.17-.65-.59-.44-.74L75,24.9l-.12-1V22.76l.12-1,.26-.83.46-.7.55-.51.52-.36.55-.12h.56l.55.15.6.35.46.51.34.61.16.66.08.73,0,1v.47Z"/><polygon class="cls-3" points="71.27 31.15 64.11 10.15 61.98 10.15 69.13 31.15 71.27 31.15 71.27 31.15 71.27 31.15 71.27 31.15"/><polygon class="cls-3" points="60.97 10.14 58.88 10.14 51.83 31.15 54.01 31.15 60.97 10.14 60.97 10.14 60.97 10.14 60.97 10.14"/><polygon class="cls-3" points="106.39 21.86 106.27 20.95 106.07 20.06 105.83 19.27 105.47 18.5 105.03 17.8 104.51 17.16 104.02 16.7 103.5 16.29 102.72 15.87 101.86 15.58 101 15.43 100.1 15.44 99.22 15.6 99.06 15.63 98.52 15.76 97.84 16.01 97.21 16.32 96.33 16.94 96.33 15.67 94.35 15.67 94.35 20.45 94.59 19.9 94.86 19.39 95.17 18.89 95.53 18.43 95.92 18 96.58 17.43 97.33 17.01 98.15 16.75 98.99 16.61 99.06 16.61 99.85 16.62 100.7 16.76 101.52 17.05 102.15 17.36 102.66 17.7 103.07 18.08 103.48 18.59 103.84 19.13 104.11 19.66 104.34 20.28 104.57 21.13 104.7 21.99 104.77 22.86 104.74 23.73 104.65 24.59 104.51 25.56 104.31 26.28 104.05 26.99 103.7 27.65 103.23 28.32 102.66 28.89 102 29.36 101.29 29.76 100.37 30.03 99.42 30.14 99.06 30.1 98.46 30.04 97.53 29.79 96.69 29.38 95.95 28.81 95.54 28.4 95.18 27.95 94.86 27.46 94.59 26.95 94.35 26.41 94.35 36.12 96.33 36.12 96.33 30.09 96.83 30.34 97.71 30.8 98.65 31.11 99.06 31.18 99.6 31.29 100.51 31.32 101.41 31.21 102.27 30.96 103.09 30.57 103.73 30.18 104.29 29.73 104.78 29.25 105.2 28.7 105.56 28.16 105.83 27.55 106.06 26.88 106.21 26.18 106.32 25.46 106.39 24.59 106.44 23.66 106.45 22.76 106.39 21.86 106.39 21.86 106.39 21.86 106.39 21.86"/><path class="cls-3" d="M94.73,26.09l.25.66.35.62.42.57.4.44.49.43.84.49,1.1.3h.48l.83,0,1-.23.91-.46.66-.54.47-.53.41-.6.31-.65.22-.68.21-1,.12-1,0-.51,0-.5-.06-1-.15-.85-.38-1.11-.58-1-.48-.56-.82-.63-.62-.3-.56-.17-.75-.15H98.61l-1,.3-.49.26-.57.39-.41.41-.65.84-.29.55-.27.64-.22.74-.17.95-.07,1v1l.11,1,.19,1Zm1.58-3.26.13-.89.23-.84.27-.54.3-.44.34-.33.49-.29.53-.17.46,0h.09l.56.1.51.21.46.34.36.5.29.6.3.76.16.85v.88l-.1.86-.24.84-.36.79-.29.45-.31.33-.36.25-.56.24-.53.08H99l-.61-.08-.54-.23-.5-.34-.44-.51-.28-.77-.21-.86-.1-.88v-.87Z"/><polygon class="cls-3" points="82.66 31.94 82.57 32.51 82.36 33.06 82.06 33.57 81.66 33.99 81.04 34.51 80.34 34.92 79.59 35.2 78.81 35.39 77.9 35.47 77.51 35.46 77 35.44 76.09 35.28 75.33 35.05 74.74 34.74 74.25 34.39 73.81 33.99 73.39 33.48 73.08 32.89 72.9 32.25 72.88 31.6 71.15 31.6 71.04 31.6 71.1 32.34 71.15 32.55 71.27 33.05 71.52 33.76 71.88 34.41 72.32 35 72.74 35.42 73.23 35.81 73.78 36.17 74.38 36.45 75.03 36.67 75.75 36.85 76.55 36.96 77.45 37.02 77.51 37.01 78.89 36.91 79.81 36.74 80.77 36.45 81.7 36.07 82.49 35.66 83.06 35.26 83.56 34.77 83.99 34.2 84.33 33.59 84.49 33.02 84.57 32.43 84.57 15.67 82.66 15.67 82.66 31.94 82.66 31.94 82.66 31.94 82.66 31.94"/><polygon class="cls-3" points="91.93 36.11 93.88 36.11 93.88 15.67 91.93 15.67 91.93 36.11 91.93 36.11 91.93 36.11 91.93 36.11"/><polygon class="cls-3" points="85.97 31.15 87.94 31.15 87.94 15.67 85.97 15.67 85.97 31.15 85.97 31.15 85.97 31.15 85.97 31.15"/><polygon class="cls-3" points="88.41 31.15 90.44 31.15 90.45 15.67 88.41 15.67 88.41 31.15 88.41 31.15 88.41 31.15 88.41 31.15"/><polygon class="cls-4" points="85.97 14.66 90.45 14.66 90.45 10.15 85.97 10.15 85.97 14.66 85.97 14.66 85.97 14.66 85.97 14.66"/><path class="cls-3" d="M42.71,33l-.38-.45-.2-.31-.06-.35,0-.37.13-.33.44-.68L42.16,30l0-.33.1-.5-.45-.39.17-.44.18-.33-.87-.2v-.74l-1-.46-.52-.31-.46-.41-.34-.5-.22-.57L38.5,24l-.33-.94-.41-.87-.52-.86-.6-.75L36,19.88l-.19-.12-.05-.2.22-.48.26-.64.25-.58.12-.47,0-.41,0-.42-.06-.35-.13-.34-.17-.35L36,15.16l-.32-.3-.38-.28-.42-.22-.46-.17-.52-.1h-.52l-.49.1-.52.19-.21.1-.29.15L31.4,15l-.46.48-.36.44-.35.48-.33.54-.39.66-.43.77-.34.61-.3.46-.21.22-.31.17-.29.05-.3-.05-.28-.2-.19-.3L26.79,19l.07-.36.12.21.16.19.19.15.26.05h.26L28,19.1l.13-.17.06-.22v-.27l-.1-.28L28,17.89l-.24-.19-.28-.15-.3-.07-.33,0-.28.1-.26.12-.23.22-.2.3-.15.34-.09.35,0,.35.05.39.14.47.17.45-.42,0L24.71,20,24.46,21l-.08.07-.19,0-.11-.1-.3-.5-.22-.17-.28.06-.17.22-.15.57-.24.55-.67-.84-.38-.42-.72,1-.61-.61-.52-.58-.41.69-.12.12h-.16L19,21l-.33-.61-.25-.07-.26.05L18,20.5l-.16.26-.2.28-.35.3-.49.27.08-.66,0-.55,0-.34-.11-.27-.25-.13-.27.05-1.7,1.16.11-.42.08-.41.09-.42,0-.41-.59-.5-.78.33-.82.1L12,19.08v0l0,.09-.27.52-.38.19-.55-.08-.1,0-.91-.17-.44.28-.55.91L8.54,21l-.3.11h-.3L7.65,21l-.26-.28-.24,1.07L7,22.82,7,23.9,7.12,25l.19,1,.28,1,.24.94.54,2.18.42,2,.24,1,.17,1,.05.76-.05.55L9,36l-.27.58-.49.85-.84,1.3,2.81-.14.18-.67.21-.67.1-.32.41-.74.49-.58.27-.3.19-.25,0-.27,0-.28,0-.26.07-.29.21-.33.2-.22.13-.21V33l0-.37.11-.46.06-.33,0-.31-.17-.26L12.61,31v-.2l.22-.41.55-.83-.6-.27-.36-.17-.27-.17L12,28.64l0-.28L12,28l2,.78.2.88.28,1.11.14.64.11.51v.42l-.08.41-.15.36-.24.31-.41.33-.68.39.2.29.22.22,1.35.89.25-.39.46-.64.47-.39.63-.33.65-.3-.16-.22L17,33.14,16.85,33l-.14-.17,0-.28.13-.27L17.2,32l-.33-.5.33-.44.47-.41-.17-.39-.18-.38-.09-.37.05-.4.14-.37.73-.08.76.08,1.23-.06.83.06V29l-.06.44-.16.52-.15.56-.17.63-.2.59-.23.44-.3.41-.41.42-.63.55-.91.76,1.9,1.25.36-.42.32-.46.2-.5.16-.52,1.42-.26-.54-.88.43-.06.31,0,.24-.08.17-.2.15-.27.2-.25.32-.2.24-.13.22-.17.17-.36.16-.35.08-.28.06-.22-.06-.13-.08-.09-.11-.17v-.18l.19-.11.38,0,.41-.05.82,1.27.48.74.21.39.11.38.05.31-.06.3-.25.39-.56.68-.89.94.77.06.77,0h.76l.77,0,.05-.56,0-.54.1-.53.27-.49.36-.45.41-.41-.11-.31,0-.41.16-.35.19-.33-.63-.06.35-.41-.92-.52.05-.37.16-.37.23-.28L29.1,28l.38-.09.31.39.18.4.22.39.28.39.35.38.39.39.38.39.35.38.22.39v0l.1.32v.38l-.1.25-.06.14-.47.79-.79,1.17h.27l.34,0,.48,0,.23,0,.24,0,.44-.16.32-.17.25-.22.12-.3,0-.42.06-.43.16-.33.19-.25.16-.22.09-.28.11-.33.14-.39-.28-.21v-.18l.38-.63.12-.33-1.79-.41-.18-1.05H33l.35.07.46.11.54.15.66.18.69.15.73.13.68.11.58.15.46.16.35.22.3.25.28.38.33.46.3.48,1.39,2.1.23.33.1.39-.05.41-.17.35-.87,1.2.52.55,1.72-.2.11-.41.09-.42.05-.41,0-.44.41-.57v-.53L42.71,33ZM35.38,17l-.08.39-.18.44-.28.33-.3.17-.38.06h-.38l-.91-.22-.54-.2-.13.27,0,.05-.38.59-.83.74-.85.44-.7.25-.47.14.27-.42.27-.44.34-.58.52-.85.62-1,.52-.74.44-.48.25-.23.16-.15.43-.28.39-.17.41-.05.43,0,.39.14.38.25.32.35.22.37.11.39,0,.4Z"/><path class="cls-3" d="M7.69,19.6l.09.83.11.16.17.06.2,0,.12-.14.33-.58.19-.32.29-.24.34-.13H9.9l.44.11.29.06.12,0,.33,0,.23-.2.07-.3-.1-.31-.14-.35-.22-.28.05-.09.42.33.59.34.5.14.49,0,.5-.08.46-.22-.37-.14L13.19,18l-.3-.25-.3-.28L11.5,15.69l.07-.06.36.25.52.3.57.21.47.15.46.09h.47l.27-.09.19-.19.08-1-.49.09-.5,0-.45-.11-.44-.19-.36-.3-.3-.36-.25-.39-.15-.4.05-.34.19-.31.35-.18.39-.09.38.05.38.17.27-.69.52.3.33-.49.25-.61.14-.75-.06-.62L15,9.51l-.16-.26-.23-.18-.3,0L14,9.12l-1.3.46-1.94.65-.12,0-.88.3-.33.05-.28-.11L7.31,9.25l-.59-.41L7,11.53l-.32.15-.32.19-.3.23-.29.27-.41.55L5,13.37l-.32.31-.33.26.06.39.2.38.31.28.36.17v.6l0,.61L5.18,17l-.13.6-.17.59.46.11h.33l.31,0V19.4l0,.59-.08.57-.11.59.45-.34.43-.41L7,20l.33-.48.38.13Zm2.49-7.8.13-.17.22-.09h.22l.19.09.14.17,0,.22,0,.22-.14.18-.19.09h-.22l-.22-.09-.13-.18,0-.22,0-.22Z"/><polygon class="cls-4" points="16.41 12.26 16.49 12.42 16.82 12.96 16.14 13.12 15.51 13.26 14.94 13.47 14.58 13.64 14.38 13.84 14.34 14.05 14.41 14.22 14.64 14.41 15.24 14.69 16.57 15.05 17.97 15.47 18.72 15.63 19.3 15.71 19.95 15.71 20.69 15.63 21.38 15.49 22 15.32 22.57 15.1 23.01 14.86 23.56 14.94 24.19 15.04 24.93 15.05 25.69 14.99 26.45 14.83 27.22 14.55 27.92 14.22 28.61 13.86 30.45 12.65 30.6 12.43 30.63 12.32 30.53 12.24 30.42 12.13 30.11 11.98 29.59 11.88 29.13 11.91 28.61 12.02 27.05 12.43 26.59 12.51 26.16 12.51 25.73 12.48 25.36 12.4 25.08 12.24 24.78 12.09 24.41 11.98 23.72 11.85 22.79 11.71 21.57 11.58 20.6 11.54 19.81 11.58 19.05 11.68 17.61 11.96 16.41 12.26 16.41 12.26 16.41 12.26 16.41 12.26"/></g></g></svg>