<svg xmlns="http://www.w3.org/2000/svg" xmlns:xlink="http://www.w3.org/1999/xlink" viewBox="0 0 86.73 96.76"><defs><style>.cls-1{fill:#0073bd;}.cls-2{fill:url(#New_Gradient_Swatch_1);}.cls-3{fill:url(#New_Gradient_Swatch_1-2);}.cls-4{fill:url(#New_Gradient_Swatch_2);}.cls-5{fill:url(#New_Gradient_Swatch_2-2);}</style><linearGradient id="New_Gradient_Swatch_1" x1="0.14" y1="34.35" x2="43.44" y2="34.35" gradientUnits="userSpaceOnUse"><stop offset="0" stop-color="#0066b3"/><stop offset="0.03" stop-color="#0075c0"/><stop offset="0.09" stop-color="#008ed5"/><stop offset="0.15" stop-color="#00a0e3"/><stop offset="0.22" stop-color="#00abec"/><stop offset="0.3" stop-color="#00aeef"/><stop offset="0.5" stop-color="#00aeef"/><stop offset="0.59" stop-color="#00a7ea"/><stop offset="0.72" stop-color="#0095da"/><stop offset="0.88" stop-color="#0077c1"/><stop offset="0.95" stop-color="#0066b3"/><stop offset="1" stop-color="#0066b3"/></linearGradient><linearGradient id="New_Gradient_Swatch_1-2" x1="17.26" y1="41.57" x2="86.79" y2="41.57" xlink:href="#New_Gradient_Swatch_1"/><linearGradient id="New_Gradient_Swatch_2" x1="0.14" y1="67.89" x2="36.37" y2="67.89" gradientUnits="userSpaceOnUse"><stop offset="0" stop-color="#9b2e3c"/><stop offset="0.05" stop-color="#ac2a3c"/><stop offset="0.15" stop-color="#c8233b"/><stop offset="0.25" stop-color="#dd1e3a"/><stop offset="0.35" stop-color="#e91b3a"/><stop offset="0.45" stop-color="#ed1a3a"/><stop offset="0.69" stop-color="#c4243b"/><stop offset="0.95" stop-color="#9b2e3c"/><stop offset="1" stop-color="#9b2e3c"/></linearGradient><linearGradient id="New_Gradient_Swatch_2-2" x1="17.19" y1="75.11" x2="86.73" y2="75.11" xlink:href="#New_Gradient_Swatch_2"/></defs><g id="Layer_2" data-name="Layer 2"><g id="Layer_1-2" data-name="Layer 1"><path class="cls-1" d="M12.52,16.5a9.21,9.21,0,0,1-3.95.72C3.13,17.22,0,13.47,0,8.7,0,3,4,0,8.93,0a7.37,7.37,0,0,1,3.59.71l-.61,3.41A6.15,6.15,0,0,0,9.08,3.5c-2.35,0-4.86,1.4-4.86,5.13,0,3.34,2,5.1,4.88,5.1a6.15,6.15,0,0,0,2.81-.62Z"/><path class="cls-1" d="M31,11.85c.14,1.56,1.43,2.39,3.43,2.41A7.36,7.36,0,0,0,38,13.37l.55,2.87a10.33,10.33,0,0,1-4.63,1c-4.39,0-6.74-2.65-6.74-6.69s2.53-6.44,6.32-6.44S39.16,7,39.16,10.57a11.67,11.67,0,0,1-.09,1.28H31m4.44-2.62a2.25,2.25,0,0,0-2.15-2.48A2.44,2.44,0,0,0,31,9.23Z"/><polygon class="cls-1" points="43.5 16.71 39.42 4.6 43.49 4.6 45.71 13.16 45.78 13.16 47.99 4.6 52.07 4.6 47.99 16.71 43.5 16.71"/><path class="cls-1" d="M53.11,8.58c0-1.78,0-2.94-.13-4h3.48l.1,2.24h.09a3.29,3.29,0,0,1,3-2.52,4.88,4.88,0,0,1,1.23.07V7.94a6.66,6.66,0,0,0-1.48-.1,2.8,2.8,0,0,0-2.52,2.36,4.19,4.19,0,0,0-.07.84v5.67H53.11Z"/><path class="cls-1" d="M73.83,10.66c0,4-2.39,6.56-6.26,6.56s-6.27-2.6-6.27-6.56,2.4-6.57,6.27-6.57,6.26,2.6,6.26,6.57m-3.83,0c0-2-.67-3.69-2.43-3.69s-2.44,1.71-2.44,3.69.67,3.68,2.44,3.68S70,12.63,70,10.66"/><path class="cls-1" d="M75.47,8.46c0-1.51-.06-2.8-.14-3.85h3.48l.08,1.69H79a4.45,4.45,0,0,1,3.74-2.08c2.43,0,4,1.66,4,5.22v7.27H83V10c0-1.55-.53-2.61-1.87-2.61a2,2,0,0,0-1.89,1.4,3,3,0,0,0-.12,1v7H75.47Z"/><path class="cls-1" d="M21.56,4.22A4.38,4.38,0,0,0,18,6h0V.06L14.22,1.34V16.71h3.69V9.52a2,2,0,0,1,2-2.15c1.38,0,1.92,1.09,1.92,2.67v6.67h3.69V9.53c0-3.65-1.57-5.31-3.92-5.31"/><polygon class="cls-2" points="0.14 48.78 43.44 34.35 0.14 19.92 0.14 48.78"/><polygon class="cls-3" points="43.44 34.35 0.15 48.78 43.44 63.22 86.72 48.78 86.72 19.93 43.44 34.35"/><polygon class="cls-4" points="0.14 53.46 0.14 82.33 43.43 67.89 0.14 53.46"/><polygon class="cls-5" points="43.42 67.89 0.14 82.33 43.43 96.76 86.73 82.33 86.73 53.46 43.42 67.89"/></g></g></svg>