<svg xmlns="http://www.w3.org/2000/svg" viewBox="0 0 122.66 23.09"><defs><style>.cls-1{fill:#ed1b2d;}</style></defs><g id="Layer_2" data-name="Layer 2"><g id="Layer_1-2" data-name="Layer 1"><path class="cls-1" d="M88.71,4.23a6.38,6.38,0,1,0,6.48,6.39A6.36,6.36,0,0,0,88.71,4.23Zm0,9.49a3,3,0,0,1-3.08-3.1A3,3,0,0,1,88.73,7.5a3,3,0,0,1,3,3.11A3,3,0,0,1,88.74,13.72Z"/><path class="cls-1" d="M80,0V16.7H76.55V4.12l-.16,0a3.31,3.31,0,0,0-.14.41c-1,3.89-1.92,7.77-2.85,11.65-.11.43-.25.61-.72.59-1-.05-1.92,0-2.88,0-.39,0-.51-.14-.59-.48q-1.39-5.87-2.8-11.72a3.09,3.09,0,0,0-.14-.43h-.12V16.69l-.58,0h-2.3c-.66,0-.66,0-.66-.64V.62c0-.21,0-.41,0-.62h5.94a.65.65,0,0,0,0,.14Q69.85,6,71.2,11.88a4.13,4.13,0,0,0,.19.47c.09-.29.15-.43.18-.58.72-3,1.44-6.11,2.14-9.16.2-.87.37-1.74.56-2.61Z"/><path class="cls-1" d="M30.86,23.09c-.9-.93-1.79-1.86-2.69-2.78-1.11-1.15-2.23-2.28-3.35-3.42l-.38-.35-1.3,1.68-1.94,2.5a.68.68,0,0,1-.36.26h-4l5.3-6.64L19.71,12l-.33.41c-1,1.31-2,2.61-3.05,3.94a.86.86,0,0,1-.8.38c-1.16,0-2.32,0-3.63,0l5.72-7.18-5-4.86.1-.15.3,0c1.39,0,2.78,0,4.17,0a1,1,0,0,1,.61.25c.7.63,1.38,1.28,2.09,1.94l.95-1.21q1.41-1.81,2.81-3.64a.81.81,0,0,1,.71-.37c1.06,0,2.11,0,3.16,0,.14,0,.28,0,.52,0l-5.94,7.5,2.41,2.33.21-.23Q27.13,8,29.56,4.87a.81.81,0,0,1,.75-.36c1.19,0,2.39,0,3.68,0l-7.32,9.27,9.27,9.31Z"/><path class="cls-1" d="M100.81,0V5.39a.65.65,0,0,0,.18,0A5.9,5.9,0,0,1,110.26,9a6.45,6.45,0,0,1-3.75,7.63,5.68,5.68,0,0,1-5.39-.59l-.2-.13s-.06,0-.09,0c-.17.86-.17.86-1.09.86H97.36V0Zm2.92,13.71a3.08,3.08,0,0,0,3.11-3.09,3.1,3.1,0,1,0-3.11,3.09Z"/><path class="cls-1" d="M11,0V3.07H3.76V6.61h6.85v3H10c-1.94,0-3.89,0-5.84,0-.36,0-.5.09-.49.49,0,1.17,0,2.35,0,3.57H11v3.06c-.19,0-.39,0-.59,0H.57c-.19,0-.38,0-.57,0V0Z"/><path class="cls-1" d="M122.66,16.77l-3-.05-.61,0v-.61c0-5.16,0-10.31,0-15.47,0-.21,0-.41,0-.62h3.64Z"/><path class="cls-1" d="M116.24,0V3H112.6V0Z"/><path class="cls-1" d="M59.65,16.69H56.17V10.12a4.6,4.6,0,0,0-.09-.91,2.09,2.09,0,0,0-2.46-1.85,2.05,2.05,0,0,0-2,2.09c-.07,2.18,0,4.37-.06,6.56,0,.72,0,.72-.74.72s-1.56,0-2.34,0c-.33,0-.45-.11-.45-.44,0-3.78,0-7.57,0-11.35,0-.14.15-.4.24-.41,1,0,2,0,3,0l.08,1.12.45-.35a5.06,5.06,0,0,1,6.25,0,4.42,4.42,0,0,1,1.53,3.3c0,2.62,0,5.24,0,7.86A1.07,1.07,0,0,1,59.65,16.69Z"/><path class="cls-1" d="M116.18,16.69h-3.55V4.55h3.55Z"/><path class="cls-1" d="M39.47,4.23A6.38,6.38,0,1,0,46,10.62,6.4,6.4,0,0,0,39.47,4.23Zm.09,9.49a3,3,0,0,1-3.07-3.09,3,3,0,1,1,6.08,0A3,3,0,0,1,39.56,13.72Z"/></g></g></svg>