<svg xmlns="http://www.w3.org/2000/svg" viewBox="0 0 162.21 20.41"><defs><style>.cls-1{fill:#ee3124;}.cls-2{fill:#00355f;}</style></defs><g id="Layer_2" data-name="Layer 2"><g id="Layer_1-2" data-name="Layer 1"><path class="cls-1" d="M157.94,2.75h-9.71c-.92,0-1.51-.39-1.49-1.39s.62-1.24,1.47-1.24c4.17,0,8.35,0,12.52,0,1.45,0,1.9.88,1.05,2-3.31,4.45-6.66,8.88-10,13.31-.52.7-1.17,1.09-2,.49s-.72-1.39-.15-2.16l6.87-9.12C156.9,4.16,157.27,3.64,157.94,2.75Z"/><path class="cls-2" d="M41.88,4.31a84.74,84.74,0,0,0-11.49.06c-1.81.11-2.59,1.44-2.64,3.31,0,1.42,0,2.85,0,4.27,0,3,.78,3.91,3.76,4.07,3.25.18,6.51.1,9.76.19.37,0,.72.33,1.09.51-.29.41-.49,1-.88,1.19a3.89,3.89,0,0,1-1.62.18c-2.61,0-5.22,0-7.84,0-.81,0-2-.43-2,1.1s1.1,1.17,2,1.18c1.56,0,3.12,0,4.68,0H41c2.85,0,4-1.11,4-4,0-2.7,0-5.41,0-8.12C45,6,44.1,4.47,41.88,4.31Zm.5,9.55c-3.71,0-7.18.06-10.64-.06a2,2,0,0,1-1.31-1.39,31,31,0,0,1-.06-4.52A1.66,1.66,0,0,1,32.18,6.2c2.74,0,5.49-.08,8.23,0,1.59.07,2,.61,2,2.2C42.39,10.21,42.38,12,42.38,13.86Z"/><path class="cls-2" d="M17.67.08c-1,0-1.4.39-1.39,1.41,0,3,0,6,0,9,0,.44-.05.87-.09,1.56-.57-.45-1-.73-1.33-1L3.1,1a5.37,5.37,0,0,0-1-.74C.85-.36,0,.16,0,1.56,0,6,0,10.38,0,14.78c0,.76-.1,1.53,1,1.51s1.48-.46,1.47-1.52c0-2.94,0-5.88,0-8.81,0-.48,0-1,.07-1.73.63.5,1,.8,1.39,1.12l10.5,8.9a12.4,12.4,0,0,0,2,1.63,2.67,2.67,0,0,0,1.92.17c.34-.12.59-1,.59-1.47C19,10.22,19,5.86,19,1.5,19,.52,18.69.05,17.67.08Z"/><path class="cls-2" d="M124.09,4c-3.94-.08-7.89-.06-11.83,0a1.08,1.08,0,0,0-.91,1.73,2,2,0,0,0,1.33.45c3.12,0,6.23,0,9.35,0,.87,0,1.89,0,2,1.54h-1.8c-3.3,0-6.6,0-9.9.11-2.12.08-3.54,1.39-3.66,3-.24,3.13.59,4.55,3,5.15a9.42,9.42,0,0,0,2.18.26c1.92,0,3.85.05,5.78,0A35.37,35.37,0,0,0,124.1,16a2.51,2.51,0,0,0,2.46-2.23,65.41,65.41,0,0,0,0-7.54A2.37,2.37,0,0,0,124.09,4Zm-3,10.11c-2.42,0-4.84,0-7.27,0-1.91,0-2.45-.66-2.5-2.31A1.54,1.54,0,0,1,113,9.94c1.73,0,3.47,0,5.2,0v0c1.6,0,3.2,0,4.8,0,.84,0,1.09.3,1.11,1.12C124.19,13.64,123.79,14.09,121.09,14.09Z"/><path class="cls-2" d="M91.82,7.24c-2.52-.1-5,0-7.57,0-2.92,0-2.92,0-2.91-3,0-1.81.15-2,2-2,3.49,0,7,0,10.46,0C94.51,2.23,95,2,95,1.16S94.57.07,93.79.08c-1.93,0-3.85,0-5.78,0v0c-1.93,0-3.85-.06-5.78,0A3.35,3.35,0,0,0,78.71,3.8c0,.87,0,1.74,0,2.61A2.48,2.48,0,0,0,81,9.09a21.72,21.72,0,0,0,3.42.29c2.25,0,4.5,0,6.74,0,1.66,0,1.91.33,1.92,1.95a3.36,3.36,0,0,1,0,1.23,2.52,2.52,0,0,1-1,1.24,4.89,4.89,0,0,1-1.89.24c-3.3,0-6.6,0-9.9,0-.72,0-1.45,0-1.48,1s.55,1.23,1.43,1.23c3.62,0,7.25.1,10.87-.05,3.83-.15,4.94-1.43,4.77-4.81C95.68,8.46,94.83,7.36,91.82,7.24Z"/><path class="cls-2" d="M62.92,4.73a6.72,6.72,0,0,0-3-.76c-2.29-.11-4.58-.1-6.87,0a12.74,12.74,0,0,0-3.24.57,3.11,3.11,0,0,0-2.42,3.27c0,1.1,0,2.2,0,3.3,0,3.19,1.28,4.85,4.48,5.08s6.51.1,9.76,0c.35,0,1-.7,1-1a2,2,0,0,0-1-1.13c-.32-.18-.81,0-1.22,0-2.8-.05-5.6,0-8.38-.19-1.51-.08-1.9-.72-1.86-2.54H60.48c4.41,0,4.54-.08,3.9-4.5A3.31,3.31,0,0,0,62.92,4.73ZM60.67,9.08c-3.48,0-7,0-10.5,0-.32-2.22,0-2.82,2-2.93,2.6-.14,5.22-.06,7.83,0,.44,0,1.1.09,1.27.37a5.28,5.28,0,0,1,.61,2.07C61.86,8.71,61.08,9.08,60.67,9.08Z"/><path class="cls-2" d="M137.5,3.93c-1.88,0-3.76,0-5.64,0a2.75,2.75,0,0,0-3,2.91c-.07,1.33,0,2.66,0,4h0c0,1.29,0,2.57,0,3.86,0,1,.3,1.59,1.39,1.58s1.4-.59,1.39-1.6c0-2.25,0-4.5,0-6.75a1.52,1.52,0,0,1,1.73-1.78c1.38,0,2.76,0,4.13,0,.77,0,1.23-.29,1.26-1.11S138.27,3.92,137.5,3.93Z"/><path class="cls-2" d="M75.51,4c-1.92-.1-3.85-.09-5.77,0a2.69,2.69,0,0,0-2.89,2.94c0,1.33,0,2.66,0,4h0c0,1.28,0,2.56,0,3.84,0,1,.27,1.6,1.38,1.56s1.42-.59,1.4-1.6c0-2.2,0-4.4,0-6.6,0-1.58.31-1.9,1.93-1.93,1.32,0,2.65,0,4,0,.8,0,1.29-.44,1.12-1.17A1.59,1.59,0,0,0,75.51,4Z"/><path class="cls-2" d="M23.51,3.77c-1,0-1.46.34-1.44,1.36,0,1.66,0,3.31,0,5s0,3.22,0,4.82c0,1,.5,1.36,1.44,1.38S25,15.92,25,14.93c0-3.26,0-6.52,0-9.78C25,4.14,24.47,3.78,23.51,3.77Z"/><path class="cls-2" d="M23.5.09c-1,0-1.9.24-1.88,1.45S22.51,2.9,23.46,3c.93-.1,1.86-.3,1.85-1.52S24.44.1,23.5.09Z"/><path class="cls-2" d="M108.23,6.09a.91.91,0,0,0,.91-.92V4.84a.91.91,0,0,0-.91-.92h-3.82V2.83c0-.68,0-1.19,0-1.36,0-1-.39-1.42-1.39-1.39s-1.43.45-1.39,1.44c0,.16,0,.65,0,1.31,0,.34,0,.7,0,1.09h-.08a15.86,15.86,0,0,0-1.83,0H97.46a.92.92,0,0,0-.91.92v.33a.92.92,0,0,0,.91.92h4.2v0h0V7.79c0,2.34,0,4.68,0,7,0,1,.39,1.47,1.38,1.47s1.41-.45,1.4-1.44c0-1.33,0-2.67,0-4h0v-.41c0-.41,0-.82,0-1.23h0c0-.88,0-2,0-3.1Z"/></g></g></svg>