<svg xmlns="http://www.w3.org/2000/svg" viewBox="0 0 129.07 40.56"><defs><style>.cls-1{fill:#e4032e;}.cls-2{fill:#f49600;}.cls-3{fill:#164194;}.cls-4{fill:#4a96d2;}</style></defs><g id="Layer_2" data-name="Layer 2"><g id="Layer_1-2" data-name="Layer 1"><path class="cls-1" d="M72.35,18.64c-5.3,0-8.34,2.28-8.34,6.25s3,6.21,8.34,6.21,8.34-2.27,8.34-6.2-3-6.26-8.34-6.26m0,9.58c-2.89,0-4.36-1.11-4.36-3.33s1.47-3.36,4.36-3.36,4.38,1.13,4.38,3.36-1.48,3.33-4.38,3.33m9.43-9.28V21.6h5v8.26c0,.78,1.19,1.07,2.21,1.07s2.22-.27,2.22-1.07V21.6h5V18.94ZM123,28.05a4.22,4.22,0,0,1-2.54-.58,2.37,2.37,0,0,1-.68-1.84V19.8c0-.77-1.14-1-2.12-1s-2.13.26-2.13,1v5.64c0,2.16.69,3.67,2.07,4.49,1.7,1,4.79.95,7.76.91h3.7V28.05Zm-68.65-.88c0,2.1,1.76,3.54,4.77,3.78V18.27h6.73V15.34H48.3v2.93h6.05Zm59.47,3.67-.11-.48c-1-4.88-6.53-10.45-7.68-11.27a2.19,2.19,0,0,0-1.27-.33,2.23,2.23,0,0,0-1.3.33c-1.15.82-6.69,6.39-7.67,11.27l-.11.48h3.93l.07-.35a12.55,12.55,0,0,1,.75-2.21h8.63a11,11,0,0,1,.74,2.21l.09.35Zm-12-5.06a20.93,20.93,0,0,1,2.94-3.56,22.42,22.42,0,0,1,2.91,3.56Z"/><path class="cls-2" d="M37.1,22.61a1.06,1.06,0,0,0-.09-.25c-2.9,3.31-10,5.45-16.43,5-3.77-.28-10.76-2.23-14.29-4.39a32,32,0,0,0,13,7.75c5.86,1.74,12.12,1.62,15.65-.21,2.58-1.75,3.17-4.86,2.13-7.87"/><path class="cls-3" d="M29,1.79C40.59,8.6,33.71,30.06,24.52,37,16,43.37,6.87,40.41,4.9,34.5A7.1,7.1,0,0,0,13.08,37c8.44-3.38,12.79-18.67,13.35-24,.38-4.57-.22-7.63-1.8-9.57C22.81,1.49,20,.56,16,1.84,18.75-.47,24.75-.74,29,1.79"/><path class="cls-1" d="M35.5,30.17l.14-.09h0a5.76,5.76,0,0,0,.69-.53q.15-.13.3-.3C41.15,24.68,42.1,12,31,6,27.09,3.86,17.93.87,8.79,5.48a17.18,17.18,0,0,0-7.82,9c1.24-2.05,3.38-3.43,7.61-4a36.41,36.41,0,0,1,15.7,2.13,30.88,30.88,0,0,1,8.95,4.91A12.35,12.35,0,0,1,37,22.36a1.25,1.25,0,0,1,.09.25c1,3,.45,6.12-2.13,7.87h0l.37-.21,0,0,.11-.07"/><path class="cls-2" d="M2.4,21.78a14.57,14.57,0,0,0,1,1.28c2.23-5.22,14.38-8.61,18-8.57-8.06-2.6-15.95-1.36-19.13,1.4C1.09,17.17.73,19.1,2.4,21.78"/><path class="cls-4" d="M26.11,33.62c-6.47-.36-15.9-2.86-22.58-10.43l-.13-.13a14.57,14.57,0,0,1-1-1.28c-1.67-2.68-1.31-4.61-.16-5.9a5.65,5.65,0,0,0-.76.81c-1.71,2.21-1.91,5.8-.75,9.6,2.55,8.26,13.68,13.23,22.72,11.86a20.79,20.79,0,0,0,10.89-5.44,23.27,23.27,0,0,1-8.23.91"/></g></g></svg>