<?xml version="1.0" encoding="utf-8"?>
<!-- Generator: Adobe Illustrator 26.0.2, SVG Export Plug-In . SVG Version: 6.00 Build 0)  -->
<svg version="1.1" id="layer" xmlns="http://www.w3.org/2000/svg" xmlns:xlink="http://www.w3.org/1999/xlink" x="0px" y="0px"
	 viewBox="0 0 600.1 183.6" style="enable-background:new 0 0 600.1 183.6;" xml:space="preserve">
<style type="text/css">
	.st0{fill:#002B54;}
	.st1{fill:#F7921E;}
</style>
<rect x="330" y="51.2" class="st0" width="32" height="129.5"/>
<rect x="330" y="1.8" class="st0" width="32" height="29.3"/>
<g>
	<path class="st0" d="M442.7,51.1v23.8h-23.4V139c0,6,0.9,10,2.7,12c1.8,2,5.4,3,10.8,3c1.8,0,3.5-0.1,5.2-0.2
		c1.7-0.2,3.2-0.4,4.7-0.8v27.5c-2.7,0.5-5.7,0.8-9,1s-6.5,0.2-9.7,0.2c-5,0-9.6-0.4-14.1-1.1c-4.4-0.8-8.3-2.2-11.7-4.4
		c-3.4-2.2-6-5.3-8-9.3c-1.9-4-2.9-9.2-2.9-15.8V74.8h-19.4V51h19.4V12.2h32V51L442.7,51.1L442.7,51.1z"/>
	<path class="st0" d="M474.7,131.1c0.9,4.9,2.4,9.3,4.6,13.3c2.2,3.9,5.1,7.1,8.7,9.4s8.1,3.5,13.5,3.5s9.9-1.2,13.6-3.5
		c3.7-2.3,6.6-5.5,8.8-9.4s3.7-8.3,4.6-13.3c0.9-4.9,1.4-10,1.4-15.1s-0.5-10.3-1.4-15.3s-2.4-9.4-4.6-13.3c-2.2-3.8-5.1-7-8.8-9.4
		c-3.7-2.4-8.2-3.6-13.6-3.6c-5.4,0-9.9,1.2-13.5,3.6c-3.6,2.4-6.5,5.5-8.7,9.4c-2.2,3.8-3.7,8.3-4.6,13.3s-1.3,10.1-1.3,15.3
		S473.9,126.2,474.7,131.1 M445.7,87.8c2.8-8.4,6.9-15.6,12.2-21.5s11.6-10.5,18.9-13.8c7.4-3.3,15.6-4.9,24.8-4.9
		s17.5,1.6,24.9,4.9c7.4,3.2,13.8,7.8,19,13.8s9.3,13.1,12.2,21.5c2.8,8.4,4.3,17.8,4.3,28.1c0,10.3-1.4,19.7-4.3,28
		c-2.9,8.3-6.9,15.5-12.2,21.4s-11.6,10.5-19,13.6c-7.4,3.2-15.7,4.8-24.9,4.8s-17.4-1.6-24.8-4.8c-7.4-3.2-13.7-7.7-18.9-13.6
		s-9.3-13-12.2-21.4c-2.9-8.3-4.3-17.7-4.3-28C441.4,105.6,442.8,96.2,445.7,87.8"/>
	<rect x="568.1" y="1.7" class="st0" width="32" height="178.7"/>
	<polygon class="st0" points="294.3,1.8 331.5,1.8 278,180.7 238.1,180.7 185.9,1.8 221.7,1.8 258.9,131.5 	"/>
	<path class="st1" d="M79.8,145.5c14.9,0,25.7-7.5,32.4-16.2c3.5-4.5,6.3-10.1,7.7-16.8c3.2-14.9-3.3-28.5-9.8-37.1
		c-3.5-4.6-7.4-8.5-11.4-13c-3.6-4.1-8-8.4-11.2-13.2c-2.3-3.4-4.7-7.5-6.5-11.8c-0.6-1.3-1.3-3.5-1.8-4.4v-0.2v0.1v-0.1V33
		c-0.5,0.9-1.2,3.1-1.8,4.4c-1.9,4.3-4.2,8.4-6.5,11.8c-3.3,4.8-7.6,9.1-11.2,13.2c-4,4.5-7.9,8.4-11.4,13
		c-6.6,8.6-13,22.3-9.8,37.1c1.4,6.7,4.2,12.3,7.7,16.8c6.8,8.7,17.5,16.2,32.4,16.2"/>
	<path class="st0" d="M78.1,171.1c-11.7,0-21.3-2.9-29.6-6.9c-8.3-3.9-15.2-9.4-20.9-15.9C16.8,136,7.7,116.7,11,92.9
		c1.5-10.5,5.3-19.1,10.1-26.6c4.7-7.5,10.4-14.5,16.3-20.5c6-6,13.3-11.2,18.6-18.2c5.2-7,8.9-15.3,9.3-27.5H12
		C5.4,0.1,0.1,5.4,0.1,12v157.7c0,6.6,5.3,11.9,11.9,11.9h133.6c6.6,0,11.9-5.3,11.9-11.9V12.1c0-6.6-5.3-11.9-11.9-11.9H92.3
		c0.4,12.2,4.1,20.4,9.3,27.5c5.3,7.1,12.6,12.3,18.6,18.2c6,6,11.6,13,16.3,20.5c4.8,7.5,8.6,16.1,10.1,26.6
		c3.4,23.8-5.8,43.1-16.6,55.4c-5.7,6.5-12.7,11.9-20.9,15.9c-8.3,4-17.9,6.9-29.6,6.9"/>
</g>
</svg>
